<svg width="380" height="150" viewBox="0 0 380 150" fill="none" xmlns="http://www.w3.org/2000/svg">
<g opacity="0.3">
<path d="M75.2969 77.0169C75.2969 97.5709 58.766 114.213 38.3984 114.213C18.0309 114.213 1.5 97.5709 1.5 77.0169C1.5 56.463 18.0309 39.8206 38.3984 39.8206C58.766 39.8206 75.2969 56.463 75.2969 77.0169Z" fill="url(#paint0_linear_210_715)" stroke="#4F473B" stroke-width="3"/>
<path d="M123.821 96.4339C123.821 116.988 107.29 133.63 86.9224 133.63C66.5548 133.63 50.0239 116.988 50.0239 96.4339C50.0239 75.88 66.5548 59.2375 86.9224 59.2375C107.29 59.2375 123.821 75.88 123.821 96.4339Z" fill="url(#paint1_linear_210_715)" stroke="#4F473B" stroke-width="3"/>
<path d="M164.575 57.8565C164.575 78.3882 147.793 95.0529 127.067 95.0529C106.341 95.0529 89.5591 78.3882 89.5591 57.8565C89.5591 37.3249 106.341 20.6602 127.067 20.6602C147.793 20.6602 164.575 37.3249 164.575 57.8565Z" fill="url(#paint2_linear_210_715)" stroke="#4F473B" stroke-width="3"/>
<path d="M123.821 38.6964C123.821 59.2503 107.29 75.8927 86.9224 75.8927C66.5548 75.8927 50.0239 59.2503 50.0239 38.6964C50.0239 18.1424 66.5548 1.5 86.9224 1.5C107.29 1.5 123.821 18.1424 123.821 38.6964Z" fill="url(#paint3_linear_210_715)" stroke="#4F473B" stroke-width="3"/>
<path d="M216.61 45.7555C216.61 66.2871 199.828 82.9518 179.102 82.9518C158.375 82.9518 141.594 66.2871 141.594 45.7555C141.594 25.2238 158.375 8.55908 179.102 8.55908C199.828 8.55908 216.61 25.2238 216.61 45.7555Z" fill="url(#paint4_linear_210_715)" stroke="#4F473B" stroke-width="3"/>
<path d="M272.211 57.8565C272.211 78.4333 255.93 95.0529 235.922 95.0529C215.913 95.0529 199.633 78.4333 199.633 57.8565C199.633 37.2798 215.913 20.6602 235.922 20.6602C255.93 20.6602 272.211 37.2798 272.211 57.8565Z" fill="url(#paint5_linear_210_715)" stroke="#4F473B" stroke-width="3"/>
<path d="M167.14 111.304C167.14 131.88 150.86 148.5 130.851 148.5C110.843 148.5 94.5625 131.88 94.5625 111.304C94.5625 90.7268 110.843 74.1072 130.851 74.1072C150.86 74.1072 167.14 90.7268 167.14 111.304Z" fill="url(#paint6_linear_210_715)" stroke="#4F473B" stroke-width="3"/>
<path d="M333.488 96.4339C333.488 116.988 316.957 133.63 296.59 133.63C276.222 133.63 259.691 116.988 259.691 96.4339C259.691 75.88 276.222 59.2375 296.59 59.2375C316.957 59.2375 333.488 75.88 333.488 96.4339Z" fill="url(#paint7_linear_210_715)" stroke="#4F473B" stroke-width="3"/>
<path d="M378.5 80.0421C378.5 100.596 361.969 117.238 341.602 117.238C321.234 117.238 304.703 100.596 304.703 80.0421C304.703 59.4881 321.234 42.8457 341.602 42.8457C361.969 42.8457 378.5 59.4881 378.5 80.0421Z" fill="url(#paint8_linear_210_715)" stroke="#4F473B" stroke-width="3"/>
<path d="M330.686 38.6964C330.686 59.228 313.905 75.8927 293.178 75.8927C272.452 75.8927 255.67 59.228 255.67 38.6964C255.67 18.1647 272.452 1.5 293.178 1.5C313.905 1.5 330.686 18.1647 330.686 38.6964Z" fill="url(#paint9_linear_210_715)" stroke="#4F473B" stroke-width="3"/>
<path d="M291.66 111.304C291.66 131.835 274.878 148.5 254.152 148.5C233.426 148.5 216.644 131.835 216.644 111.304C216.644 90.7719 233.426 74.1072 254.152 74.1072C274.878 74.1072 291.66 90.7719 291.66 111.304Z" fill="url(#paint10_linear_210_715)" stroke="#4F473B" stroke-width="3"/>
<path d="M222.396 106.262C222.396 126.815 205.865 143.458 185.497 143.458C165.13 143.458 148.599 126.815 148.599 106.262C148.599 85.7076 165.13 69.0652 185.497 69.0652C205.865 69.0652 222.396 85.7076 222.396 106.262Z" fill="url(#paint11_linear_210_715)" stroke="#4F473B" stroke-width="3"/>
</g>
<g filter="url(#filter0_d_210_715)">
<path d="M91.4811 84V70H94.5211L98.9811 78.88L103.381 70H106.421V84H103.861V74.34L99.9611 82H97.9411L94.0411 74.34V84H91.4811ZM113.897 84.24C112.897 84.24 112.011 84.0267 111.237 83.6C110.464 83.1733 109.857 82.5733 109.417 81.8C108.977 81.0267 108.757 80.1333 108.757 79.12C108.757 78.0933 108.971 77.18 109.397 76.38C109.837 75.58 110.437 74.96 111.197 74.52C111.971 74.0667 112.877 73.84 113.917 73.84C114.891 73.84 115.751 74.0533 116.497 74.48C117.244 74.9067 117.824 75.4933 118.237 76.24C118.664 76.9733 118.877 77.7933 118.877 78.7C118.877 78.8467 118.871 79 118.857 79.16C118.857 79.32 118.851 79.4867 118.837 79.66H111.297C111.351 80.4333 111.617 81.04 112.097 81.48C112.591 81.92 113.184 82.14 113.877 82.14C114.397 82.14 114.831 82.0267 115.177 81.8C115.537 81.56 115.804 81.2533 115.977 80.88H118.577C118.391 81.5067 118.077 82.08 117.637 82.6C117.211 83.1067 116.677 83.5067 116.037 83.8C115.411 84.0933 114.697 84.24 113.897 84.24ZM113.917 75.92C113.291 75.92 112.737 76.1 112.257 76.46C111.777 76.8067 111.471 77.34 111.337 78.06H116.277C116.237 77.4067 115.997 76.8867 115.557 76.5C115.117 76.1133 114.571 75.92 113.917 75.92ZM125.275 84C124.235 84 123.401 83.7467 122.775 83.24C122.148 82.7333 121.835 81.8333 121.835 80.54V76.22H120.135V74.08H121.835L122.135 71.42H124.395V74.08H127.075V76.22H124.395V80.56C124.395 81.04 124.495 81.3733 124.695 81.56C124.908 81.7333 125.268 81.82 125.775 81.82H127.015V84H125.275ZM132.693 84.24C131.839 84.24 131.139 84.1067 130.593 83.84C130.046 83.56 129.639 83.1933 129.373 82.74C129.106 82.2867 128.973 81.7867 128.973 81.24C128.973 80.32 129.333 79.5733 130.053 79C130.773 78.4267 131.853 78.14 133.293 78.14H135.813V77.9C135.813 77.22 135.619 76.72 135.233 76.4C134.846 76.08 134.366 75.92 133.793 75.92C133.273 75.92 132.819 76.0467 132.433 76.3C132.046 76.54 131.806 76.9 131.713 77.38H129.213C129.279 76.66 129.519 76.0333 129.933 75.5C130.359 74.9667 130.906 74.56 131.573 74.28C132.239 73.9867 132.986 73.84 133.813 73.84C135.226 73.84 136.339 74.1933 137.153 74.9C137.966 75.6067 138.373 76.6067 138.373 77.9V84H136.193L135.953 82.4C135.659 82.9333 135.246 83.3733 134.713 83.72C134.193 84.0667 133.519 84.24 132.693 84.24ZM133.273 82.24C134.006 82.24 134.573 82 134.973 81.52C135.386 81.04 135.646 80.4467 135.753 79.74H133.573C132.893 79.74 132.406 79.8667 132.113 80.12C131.819 80.36 131.673 80.66 131.673 81.02C131.673 81.4067 131.819 81.7067 132.113 81.92C132.406 82.1333 132.793 82.24 133.273 82.24ZM143.203 84L139.563 74.08H142.243L144.763 81.58L147.283 74.08H149.963L146.303 84H143.203ZM155.909 84.24C154.909 84.24 154.022 84.0267 153.249 83.6C152.476 83.1733 151.869 82.5733 151.429 81.8C150.989 81.0267 150.769 80.1333 150.769 79.12C150.769 78.0933 150.982 77.18 151.409 76.38C151.849 75.58 152.449 74.96 153.209 74.52C153.982 74.0667 154.889 73.84 155.929 73.84C156.902 73.84 157.762 74.0533 158.509 74.48C159.256 74.9067 159.836 75.4933 160.249 76.24C160.676 76.9733 160.889 77.7933 160.889 78.7C160.889 78.8467 160.882 79 160.869 79.16C160.869 79.32 160.862 79.4867 160.849 79.66H153.309C153.362 80.4333 153.629 81.04 154.109 81.48C154.602 81.92 155.196 82.14 155.889 82.14C156.409 82.14 156.842 82.0267 157.189 81.8C157.549 81.56 157.816 81.2533 157.989 80.88H160.589C160.402 81.5067 160.089 82.08 159.649 82.6C159.222 83.1067 158.689 83.5067 158.049 83.8C157.422 84.0933 156.709 84.24 155.909 84.24ZM155.929 75.92C155.302 75.92 154.749 76.1 154.269 76.46C153.789 76.8067 153.482 77.34 153.349 78.06H158.289C158.249 77.4067 158.009 76.8867 157.569 76.5C157.129 76.1133 156.582 75.92 155.929 75.92ZM163.042 84V74.08H165.322L165.562 75.94C165.922 75.3 166.409 74.7933 167.022 74.42C167.649 74.0333 168.382 73.84 169.222 73.84V76.54H168.502C167.942 76.54 167.442 76.6267 167.002 76.8C166.562 76.9733 166.216 77.2733 165.962 77.7C165.722 78.1267 165.602 78.72 165.602 79.48V84H163.042ZM175.072 84.24C174.192 84.24 173.419 84.1 172.752 83.82C172.085 83.5267 171.552 83.1267 171.152 82.62C170.752 82.1133 170.512 81.5267 170.432 80.86H173.012C173.092 81.2467 173.305 81.58 173.652 81.86C174.012 82.1267 174.472 82.26 175.032 82.26C175.592 82.26 175.999 82.1467 176.252 81.92C176.519 81.6933 176.652 81.4333 176.652 81.14C176.652 80.7133 176.465 80.4267 176.092 80.28C175.719 80.12 175.199 79.9667 174.532 79.82C174.105 79.7267 173.672 79.6133 173.232 79.48C172.792 79.3467 172.385 79.18 172.012 78.98C171.652 78.7667 171.359 78.5 171.132 78.18C170.905 77.8467 170.792 77.44 170.792 76.96C170.792 76.08 171.139 75.34 171.832 74.74C172.539 74.14 173.525 73.84 174.792 73.84C175.965 73.84 176.899 74.1133 177.592 74.66C178.299 75.2067 178.719 75.96 178.852 76.92H176.432C176.285 76.1867 175.732 75.82 174.772 75.82C174.292 75.82 173.919 75.9133 173.652 76.1C173.399 76.2867 173.272 76.52 173.272 76.8C173.272 77.0933 173.465 77.3267 173.852 77.5C174.239 77.6733 174.752 77.8333 175.392 77.98C176.085 78.14 176.719 78.32 177.292 78.52C177.879 78.7067 178.345 78.9933 178.692 79.38C179.039 79.7533 179.212 80.2933 179.212 81C179.225 81.6133 179.065 82.1667 178.732 82.66C178.399 83.1533 177.919 83.54 177.292 83.82C176.665 84.1 175.925 84.24 175.072 84.24ZM186.3 84.24C185.3 84.24 184.413 84.0267 183.64 83.6C182.866 83.1733 182.26 82.5733 181.82 81.8C181.38 81.0267 181.16 80.1333 181.16 79.12C181.16 78.0933 181.373 77.18 181.8 76.38C182.24 75.58 182.84 74.96 183.6 74.52C184.373 74.0667 185.28 73.84 186.32 73.84C187.293 73.84 188.153 74.0533 188.9 74.48C189.646 74.9067 190.226 75.4933 190.64 76.24C191.066 76.9733 191.28 77.7933 191.28 78.7C191.28 78.8467 191.273 79 191.26 79.16C191.26 79.32 191.253 79.4867 191.24 79.66H183.7C183.753 80.4333 184.02 81.04 184.5 81.48C184.993 81.92 185.586 82.14 186.28 82.14C186.8 82.14 187.233 82.0267 187.58 81.8C187.94 81.56 188.206 81.2533 188.38 80.88H190.98C190.793 81.5067 190.48 82.08 190.04 82.6C189.613 83.1067 189.08 83.5067 188.44 83.8C187.813 84.0933 187.1 84.24 186.3 84.24ZM186.32 75.92C185.693 75.92 185.14 76.1 184.66 76.46C184.18 76.8067 183.873 77.34 183.74 78.06H188.68C188.64 77.4067 188.4 76.8867 187.96 76.5C187.52 76.1133 186.973 75.92 186.32 75.92ZM198.258 84V70H200.818V75.82H207.098V70H209.658V84H207.098V77.9H200.818V84H198.258ZM213.7 72.54C213.233 72.54 212.846 72.4 212.54 72.12C212.246 71.84 212.1 71.4867 212.1 71.06C212.1 70.6333 212.246 70.2867 212.54 70.02C212.846 69.74 213.233 69.6 213.7 69.6C214.166 69.6 214.546 69.74 214.84 70.02C215.146 70.2867 215.3 70.6333 215.3 71.06C215.3 71.4867 215.146 71.84 214.84 72.12C214.546 72.4 214.166 72.54 213.7 72.54ZM212.42 84V74.08H214.98V84H212.42ZM222.072 84C221.032 84 220.198 83.7467 219.572 83.24C218.945 82.7333 218.632 81.8333 218.632 80.54V76.22H216.932V74.08H218.632L218.932 71.42H221.192V74.08H223.872V76.22H221.192V80.56C221.192 81.04 221.292 81.3733 221.492 81.56C221.705 81.7333 222.065 81.82 222.572 81.82H223.812V84H222.072ZM230.676 84.24C229.662 84.24 228.769 84.02 227.996 83.58C227.222 83.14 226.609 82.5267 226.156 81.74C225.716 80.9533 225.496 80.0533 225.496 79.04C225.496 78.0267 225.716 77.1267 226.156 76.34C226.609 75.5533 227.222 74.94 227.996 74.5C228.769 74.06 229.662 73.84 230.676 73.84C231.942 73.84 233.009 74.1733 233.876 74.84C234.742 75.4933 235.296 76.4 235.536 77.56H232.836C232.702 77.08 232.436 76.7067 232.036 76.44C231.649 76.16 231.189 76.02 230.656 76.02C229.949 76.02 229.349 76.2867 228.856 76.82C228.362 77.3533 228.116 78.0933 228.116 79.04C228.116 79.9867 228.362 80.7267 228.856 81.26C229.349 81.7933 229.949 82.06 230.656 82.06C231.189 82.06 231.649 81.9267 232.036 81.66C232.436 81.3933 232.702 81.0133 232.836 80.52H235.536C235.296 81.64 234.742 82.54 233.876 83.22C233.009 83.9 231.942 84.24 230.676 84.24ZM237.808 84V69.6H240.368V75.6C240.701 75.0533 241.148 74.6267 241.708 74.32C242.281 74 242.934 73.84 243.668 73.84C244.894 73.84 245.841 74.2267 246.508 75C247.188 75.7733 247.528 76.9067 247.528 78.4V84H244.988V78.64C244.988 77.7867 244.814 77.1333 244.468 76.68C244.134 76.2267 243.601 76 242.868 76C242.148 76 241.548 76.2533 241.068 76.76C240.601 77.2667 240.368 77.9733 240.368 78.88V84H237.808ZM254.741 84V69.6H257.301V75.6C257.635 75.0533 258.081 74.6267 258.641 74.32C259.215 74 259.868 73.84 260.601 73.84C261.828 73.84 262.775 74.2267 263.441 75C264.121 75.7733 264.461 76.9067 264.461 78.4V84H261.921V78.64C261.921 77.7867 261.748 77.1333 261.401 76.68C261.068 76.2267 260.535 76 259.801 76C259.081 76 258.481 76.2533 258.001 76.76C257.535 77.2667 257.301 77.9733 257.301 78.88V84H254.741ZM268.289 72.54C267.823 72.54 267.436 72.4 267.129 72.12C266.836 71.84 266.689 71.4867 266.689 71.06C266.689 70.6333 266.836 70.2867 267.129 70.02C267.436 69.74 267.823 69.6 268.289 69.6C268.756 69.6 269.136 69.74 269.429 70.02C269.736 70.2867 269.889 70.6333 269.889 71.06C269.889 71.4867 269.736 71.84 269.429 72.12C269.136 72.4 268.756 72.54 268.289 72.54ZM267.009 84V74.08H269.569V84H267.009ZM272.241 84V69.6H274.801V78.1L278.321 74.08H281.361L277.301 78.6L282.021 84H278.821L274.801 79.02V84H272.241ZM287.608 84.24C286.608 84.24 285.722 84.0267 284.948 83.6C284.175 83.1733 283.568 82.5733 283.128 81.8C282.688 81.0267 282.468 80.1333 282.468 79.12C282.468 78.0933 282.682 77.18 283.108 76.38C283.548 75.58 284.148 74.96 284.908 74.52C285.682 74.0667 286.588 73.84 287.628 73.84C288.602 73.84 289.462 74.0533 290.208 74.48C290.955 74.9067 291.535 75.4933 291.948 76.24C292.375 76.9733 292.588 77.7933 292.588 78.7C292.588 78.8467 292.582 79 292.568 79.16C292.568 79.32 292.562 79.4867 292.548 79.66H285.008C285.062 80.4333 285.328 81.04 285.808 81.48C286.302 81.92 286.895 82.14 287.588 82.14C288.108 82.14 288.542 82.0267 288.888 81.8C289.248 81.56 289.515 81.2533 289.688 80.88H292.288C292.102 81.5067 291.788 82.08 291.348 82.6C290.922 83.1067 290.388 83.5067 289.748 83.8C289.122 84.0933 288.408 84.24 287.608 84.24ZM287.628 75.92C287.002 75.92 286.448 76.1 285.968 76.46C285.488 76.8067 285.182 77.34 285.048 78.06H289.988C289.948 77.4067 289.708 76.8867 289.268 76.5C288.828 76.1133 288.282 75.92 287.628 75.92ZM294.741 84V74.08H297.021L297.261 75.94C297.621 75.3 298.108 74.7933 298.721 74.42C299.348 74.0333 300.081 73.84 300.921 73.84V76.54H300.201C299.641 76.54 299.141 76.6267 298.701 76.8C298.261 76.9733 297.915 77.2733 297.661 77.7C297.421 78.1267 297.301 78.72 297.301 79.48V84H294.741ZM306.771 84.24C305.891 84.24 305.118 84.1 304.451 83.82C303.784 83.5267 303.251 83.1267 302.851 82.62C302.451 82.1133 302.211 81.5267 302.131 80.86H304.711C304.791 81.2467 305.004 81.58 305.351 81.86C305.711 82.1267 306.171 82.26 306.731 82.26C307.291 82.26 307.698 82.1467 307.951 81.92C308.218 81.6933 308.351 81.4333 308.351 81.14C308.351 80.7133 308.164 80.4267 307.791 80.28C307.418 80.12 306.898 79.9667 306.231 79.82C305.804 79.7267 305.371 79.6133 304.931 79.48C304.491 79.3467 304.084 79.18 303.711 78.98C303.351 78.7667 303.058 78.5 302.831 78.18C302.604 77.8467 302.491 77.44 302.491 76.96C302.491 76.08 302.838 75.34 303.531 74.74C304.238 74.14 305.224 73.84 306.491 73.84C307.664 73.84 308.598 74.1133 309.291 74.66C309.998 75.2067 310.418 75.96 310.551 76.92H308.131C307.984 76.1867 307.431 75.82 306.471 75.82C305.991 75.82 305.618 75.9133 305.351 76.1C305.098 76.2867 304.971 76.52 304.971 76.8C304.971 77.0933 305.164 77.3267 305.551 77.5C305.938 77.6733 306.451 77.8333 307.091 77.98C307.784 78.14 308.418 78.32 308.991 78.52C309.578 78.7067 310.044 78.9933 310.391 79.38C310.738 79.7533 310.911 80.2933 310.911 81C310.924 81.6133 310.764 82.1667 310.431 82.66C310.098 83.1533 309.618 83.54 308.991 83.82C308.364 84.1 307.624 84.24 306.771 84.24Z" fill="#FFED2E"/>
</g>
<defs>
<filter id="filter0_d_210_715" x="86.481" y="65.6001" width="229.45" height="24.6399" filterUnits="userSpaceOnUse" color-interpolation-filters="sRGB">
<feFlood flood-opacity="0" result="BackgroundImageFix"/>
<feColorMatrix in="SourceAlpha" type="matrix" values="0 0 0 0 0 0 0 0 0 0 0 0 0 0 0 0 0 0 127 0" result="hardAlpha"/>
<feOffset dy="1"/>
<feGaussianBlur stdDeviation="2.5"/>
<feComposite in2="hardAlpha" operator="out"/>
<feColorMatrix type="matrix" values="0 0 0 0 0.309804 0 0 0 0 0.278431 0 0 0 0 0.231373 0 0 0 1 0"/>
<feBlend mode="normal" in2="BackgroundImageFix" result="effect1_dropShadow_210_715"/>
<feBlend mode="normal" in="SourceGraphic" in2="effect1_dropShadow_210_715" result="shape"/>
</filter>
<linearGradient id="paint0_linear_210_715" x1="38.3984" y1="38.3206" x2="38.3984" y2="115.713" gradientUnits="userSpaceOnUse">
<stop stop-color="#FFCD29"/>
<stop offset="1" stop-color="#FF9900"/>
</linearGradient>
<linearGradient id="paint1_linear_210_715" x1="86.9224" y1="57.7375" x2="86.9224" y2="135.13" gradientUnits="userSpaceOnUse">
<stop stop-color="#FFCD29"/>
<stop offset="1" stop-color="#FF9900"/>
</linearGradient>
<linearGradient id="paint2_linear_210_715" x1="127.067" y1="19.1602" x2="127.067" y2="96.5529" gradientUnits="userSpaceOnUse">
<stop stop-color="#FFCD29"/>
<stop offset="1" stop-color="#FF9900"/>
</linearGradient>
<linearGradient id="paint3_linear_210_715" x1="86.9224" y1="0" x2="86.9224" y2="77.3927" gradientUnits="userSpaceOnUse">
<stop stop-color="#FFCD29"/>
<stop offset="1" stop-color="#FF9900"/>
</linearGradient>
<linearGradient id="paint4_linear_210_715" x1="179.102" y1="7.05908" x2="179.102" y2="84.4518" gradientUnits="userSpaceOnUse">
<stop stop-color="#FFCD29"/>
<stop offset="1" stop-color="#FF9900"/>
</linearGradient>
<linearGradient id="paint5_linear_210_715" x1="235.922" y1="19.1602" x2="235.922" y2="96.5529" gradientUnits="userSpaceOnUse">
<stop stop-color="#FFCD29"/>
<stop offset="1" stop-color="#FF9900"/>
</linearGradient>
<linearGradient id="paint6_linear_210_715" x1="130.851" y1="72.6072" x2="130.851" y2="150" gradientUnits="userSpaceOnUse">
<stop stop-color="#FFCD29"/>
<stop offset="1" stop-color="#FF9900"/>
</linearGradient>
<linearGradient id="paint7_linear_210_715" x1="296.59" y1="57.7375" x2="296.59" y2="135.13" gradientUnits="userSpaceOnUse">
<stop stop-color="#FFCD29"/>
<stop offset="1" stop-color="#FF9900"/>
</linearGradient>
<linearGradient id="paint8_linear_210_715" x1="341.602" y1="41.3457" x2="341.602" y2="118.738" gradientUnits="userSpaceOnUse">
<stop stop-color="#FFCD29"/>
<stop offset="1" stop-color="#FF9900"/>
</linearGradient>
<linearGradient id="paint9_linear_210_715" x1="293.178" y1="0" x2="293.178" y2="77.3927" gradientUnits="userSpaceOnUse">
<stop stop-color="#FFCD29"/>
<stop offset="1" stop-color="#FF9900"/>
</linearGradient>
<linearGradient id="paint10_linear_210_715" x1="254.152" y1="72.6072" x2="254.152" y2="150" gradientUnits="userSpaceOnUse">
<stop stop-color="#FFCD29"/>
<stop offset="1" stop-color="#FF9900"/>
</linearGradient>
<linearGradient id="paint11_linear_210_715" x1="185.497" y1="67.5652" x2="185.497" y2="144.958" gradientUnits="userSpaceOnUse">
<stop stop-color="#FFCD29"/>
<stop offset="1" stop-color="#FF9900"/>
</linearGradient>
</defs>
</svg>
