<svg width="138" height="120" viewBox="0 0 138 120" fill="none" xmlns="http://www.w3.org/2000/svg">
<path d="M2.5 115.5C1.39543 115.5 0.5 116.395 0.5 117.5C0.5 118.605 1.39543 119.5 2.5 119.5V115.5ZM124.414 0.585786C123.633 -0.195262 122.367 -0.195262 121.586 0.585786L108.858 13.3137C108.077 14.0948 108.077 15.3611 108.858 16.1421C109.639 16.9232 110.905 16.9232 111.686 16.1421L123 4.82843L134.314 16.1421C135.095 16.9232 136.361 16.9232 137.142 16.1421C137.923 15.3611 137.923 14.0948 137.142 13.3137L124.414 0.585786ZM7.28959 119.438C8.39378 119.409 9.26551 118.491 9.23665 117.386C9.20779 116.282 8.28927 115.41 7.18508 115.439L7.28959 119.438ZM21.0463 114.498C19.9486 114.621 19.1584 115.61 19.2814 116.708C19.4044 117.806 20.394 118.596 21.4917 118.473L21.0463 114.498ZM30.9118 117.115C31.9994 116.922 32.7245 115.884 32.5315 114.796C32.3384 113.708 31.3002 112.983 30.2127 113.176L30.9118 117.115ZM43.7075 110.043C42.6468 110.351 42.037 111.461 42.3453 112.522C42.6537 113.582 43.7635 114.192 44.8241 113.884L43.7075 110.043ZM53.862 110.87C54.8951 110.48 55.4158 109.325 55.025 108.292C54.6341 107.259 53.4798 106.738 52.4467 107.129L53.862 110.87ZM65.0243 101.441C64.0495 101.961 63.6803 103.172 64.1997 104.147C64.7191 105.122 65.9304 105.491 66.9053 104.971L65.0243 101.441ZM75.1486 100.091C76.0725 99.4857 76.3307 98.246 75.7253 97.3221C75.12 96.3982 73.8803 96.1399 72.9563 96.7453L75.1486 100.091ZM83.9301 88.413C83.0991 89.1407 83.0154 90.4042 83.743 91.2352C84.4707 92.0662 85.7343 92.1499 86.5653 91.4222L83.9301 88.413ZM93.4679 84.7846C94.2277 83.9829 94.1937 82.717 93.3919 81.9572C92.5902 81.1974 91.3243 81.2315 90.5645 82.0332L93.4679 84.7846ZM99.3447 71.3968C98.7006 72.2941 98.9057 73.5437 99.803 74.1879C100.7 74.8321 101.95 74.6269 102.594 73.7296L99.3447 71.3968ZM107.824 65.7292C108.388 64.7795 108.076 63.5523 107.126 62.9883C106.176 62.4243 104.949 62.7369 104.385 63.6867L107.824 65.7292ZM110.692 51.3804C110.249 52.3923 110.71 53.5717 111.722 54.0147C112.734 54.4577 113.913 53.9966 114.356 52.9848L110.692 51.3804ZM117.838 44.1034C118.201 43.0603 117.65 41.9202 116.607 41.5571C115.563 41.1939 114.423 41.7451 114.06 42.7883L117.838 44.1034ZM117.871 29.477C117.626 30.5541 118.301 31.6257 119.378 31.8705C120.455 32.1152 121.527 31.4405 121.772 30.3634L117.871 29.477ZM123.544 20.9995C123.709 19.9075 122.959 18.8878 121.867 18.722C120.774 18.5562 119.755 19.3071 119.589 20.3992L123.544 20.9995ZM120.909 6.61137C120.866 7.71509 121.725 8.64493 122.829 8.68822C123.933 8.73151 124.863 7.87186 124.906 6.76814L120.909 6.61137ZM2.5 119.5C4.11542 119.5 5.71189 119.479 7.28959 119.438L7.18508 115.439C5.64264 115.48 4.08101 115.5 2.5 115.5V119.5ZM21.4917 118.473C24.7201 118.111 27.8595 117.657 30.9118 117.115L30.2127 113.176C27.2463 113.703 24.1915 114.145 21.0463 114.498L21.4917 118.473ZM44.8241 113.884C47.9422 112.977 50.954 111.971 53.862 110.87L52.4467 107.129C49.6382 108.192 46.7261 109.165 43.7075 110.043L44.8241 113.884ZM66.9053 104.971C69.7755 103.442 72.5221 101.812 75.1486 100.091L72.9563 96.7453C70.4307 98.4001 67.788 99.9687 65.0243 101.441L66.9053 104.971ZM86.5653 91.4222C88.9978 89.2921 91.2971 87.0753 93.4679 84.7846L90.5645 82.0332C88.4776 84.2354 86.2677 86.366 83.9301 88.413L86.5653 91.4222ZM102.594 73.7296C104.469 71.1178 106.211 68.4462 107.824 65.7292L104.385 63.6867C102.829 66.3071 101.15 68.8817 99.3447 71.3968L102.594 73.7296ZM114.356 52.9848C115.644 50.0445 116.802 47.0786 117.838 44.1034L114.06 42.7883C113.057 45.6686 111.937 48.5378 110.692 51.3804L114.356 52.9848ZM121.772 30.3634C122.486 27.2192 123.074 24.0916 123.544 20.9995L119.589 20.3992C119.134 23.3969 118.564 26.4291 117.871 29.477L121.772 30.3634ZM124.906 6.76814C124.969 5.15842 125 3.56799 125 2H121C121 3.51537 120.97 5.05353 120.909 6.61137L124.906 6.76814Z" fill="#FFED2E"/>
</svg>
