<svg width="25" height="24" viewBox="0 0 25 24" fill="none" xmlns="http://www.w3.org/2000/svg">
<path d="M16.964 0.100308C15.6914 0.452226 14.651 0.982429 13.9085 1.67231C13.0347 2.47949 12.6206 3.45075 12.565 4.8114L12.5347 5.48242L12.7569 5.44961C13.7872 5.30414 14.9992 4.83957 15.7921 4.29051C16.9234 3.51638 17.4738 2.50741 17.5344 1.10904C17.5597 0.503655 17.5091 0.0251242 17.4232 0.00161402C17.3934 -0.00744719 17.1912 0.039329 16.964 0.100308Z" fill="white"/>
<path d="M16.4075 5.81989C15.8722 5.89973 15.4127 6.031 14.7358 6.29842C12.7813 7.06789 12.5035 7.07255 10.7308 6.39687C9.53889 5.94161 8.75602 5.80569 7.80657 5.89483C6.3571 6.031 5.34702 6.48602 4.2663 7.49034C3.1703 8.50862 2.44806 9.75197 2.13993 11.1457C2.00866 11.7415 1.95805 13.2572 2.03897 14.0409C2.25617 16.0165 2.89247 17.9918 3.86723 19.7325C5.20046 22.1068 6.87215 23.6742 8.38226 23.9602C8.97823 24.0728 9.5692 23.9602 11.0084 23.4439C11.8569 23.1388 12.3619 23.0168 12.9326 22.9889C13.5992 22.9561 13.983 23.036 15.1246 23.4439C16.9326 24.1008 17.5336 24.1478 18.352 23.7163C18.7055 23.5284 19.7509 22.7497 20.1399 22.3835C20.8471 21.7218 21.655 20.5113 22.3723 19.0333C22.7107 18.3388 23.0239 17.6257 22.9986 17.6068C22.9885 17.6022 22.827 17.527 22.6401 17.4425C21.9482 17.1327 21.0643 16.4102 20.5946 15.7674C20.1602 15.1765 19.7815 14.3365 19.5896 13.5386C19.5289 13.304 19.5036 12.9756 19.4986 12.5345C19.4986 11.9668 19.5139 11.8167 19.6299 11.4317C19.8015 10.8545 20.0137 10.4276 20.3671 9.93025C20.6903 9.47499 21.5035 8.67736 21.9429 8.37711C22.1954 8.20814 22.2307 8.16601 22.1904 8.09083C22.0944 7.92185 21.2106 7.12887 20.8319 6.8661C20.0946 6.36406 19.342 6.05426 18.4429 5.89018C17.7813 5.77287 16.9228 5.74006 16.4075 5.81989Z" fill="white"/>
</svg>
