<svg width="381" height="430" viewBox="0 0 381 430" fill="none" xmlns="http://www.w3.org/2000/svg">
<g clip-path="url(#clip0_107_1274)">
<path d="M262.621 197.762C261.784 197.318 260.832 196.852 259.72 196.353C251.834 192.83 240.108 189.614 225.814 187.058C222.18 186.41 218.42 185.808 214.569 185.251C204.012 183.74 192.641 182.603 180.72 181.865C180.479 181.865 170.598 181.467 163.273 181.194C158.94 181.024 155.502 180.899 155.502 180.899C155.502 180.899 149.186 180.831 146.194 180.831C135.568 180.831 125.08 181.137 114.969 181.706C97.9359 182.671 81.9454 184.421 68.0985 186.808C56.0397 188.887 45.5972 191.444 37.4931 194.409C34.1574 195.625 31.6356 196.762 29.7557 197.762C29.4806 197.887 29.217 198.012 28.9419 198.125L28.9419 245.873C28.9419 246.441 28.9648 246.998 28.9763 247.566C28.9763 247.566 28.9534 247.566 28.9419 247.577L28.9419 295.325C28.9419 296.597 28.9648 297.87 29.0221 299.131C29.3775 307.96 30.9364 316.517 33.5728 324.664C36.2092 332.812 39.9002 340.55 44.5197 347.743C49.1163 354.901 54.6183 361.526 60.8999 367.492C69.4511 375.628 79.4351 382.536 90.4851 387.9C101.478 393.24 113.525 397.047 126.283 399.001C132.76 399.99 139.408 400.513 146.194 400.513C152.98 400.513 159.147 400.035 165.394 399.104C178.324 397.195 190.543 393.377 201.685 388.002C212.827 382.627 222.879 375.673 231.488 367.492C237.769 361.515 243.283 354.879 247.879 347.72C252.51 340.504 256.201 332.755 258.838 324.607C261.463 316.449 263.022 307.881 263.366 299.04C263.411 297.813 263.446 296.575 263.446 295.347L263.446 247.611C263.446 247.611 263.423 247.611 263.411 247.6C263.411 247.032 263.446 246.464 263.446 245.907L263.446 198.125C262.964 197.921 263.01 197.955 262.632 197.762L262.621 197.762Z" fill="#FBB03B"/>
<path d="M165.795 208.034C165.543 208.034 165.291 208.011 165.039 208.011C165.039 208.011 165.016 208.011 165.004 208.011C165.268 208.011 165.532 208.034 165.795 208.034Z" fill="#CDFCFF"/>
<path d="M217.618 321.54C221.992 321.54 225.539 318.024 225.539 313.688C225.539 309.351 221.992 305.836 217.618 305.836C213.243 305.836 209.697 309.351 209.697 313.688C209.697 318.024 213.244 321.54 217.618 321.54Z" fill="white"/>
<path d="M198.922 364.083C207.443 364.083 214.351 357.235 214.351 348.788C214.351 340.341 207.443 333.493 198.922 333.493C190.401 333.493 183.494 340.341 183.494 348.788C183.494 357.235 190.401 364.083 198.922 364.083Z" fill="white"/>
<path d="M270.392 298.438C270.117 327.403 257.268 354.651 234.205 375.173C210.821 395.99 179.722 407.456 146.63 407.456C78.3806 407.456 22.8667 358.129 22.8667 297.495L22.8667 132.322C10.3036 132.322 0.113281 142.424 0.113281 154.877L0.113282 297.484C0.113282 370.548 65.8519 430 146.63 430C185.339 430 221.836 416.489 249.404 391.945C268.352 375.082 281.603 354.367 288.24 331.732C339.409 328.971 380.113 290.291 380.113 243.146C380.113 196 341.988 159.82 293.157 154.934L293.157 154.866C293.157 142.412 282.978 132.322 270.415 132.322L270.415 154.877L270.415 298.438L270.392 298.438ZM293.73 308.574L293.73 177.706C329.7 182.558 357.348 210.056 357.348 243.134C357.348 276.212 329.712 303.711 293.73 308.563L293.73 308.574Z" fill="#4F473B"/>
<path d="M119.302 365.685C150.272 365.685 175.378 340.797 175.378 310.097C175.378 279.396 150.272 254.509 119.302 254.509C88.3328 254.509 63.2269 279.396 63.2269 310.097C63.2269 340.797 88.3328 365.685 119.302 365.685Z" fill="#FFED2E"/>
<path d="M119.302 355.345C144.511 355.345 164.947 335.086 164.947 310.097C164.947 285.107 144.511 264.849 119.302 264.849C94.0937 264.849 73.658 285.107 73.658 310.097C73.658 335.086 94.0937 355.345 119.302 355.345Z" fill="white"/>
<path d="M148.085 283.417L121.171 309.904L148.085 336.391C162.23 321.517 162.23 298.291 148.085 283.417Z" fill="#4F473B"/>
<path d="M92.6746 337.755L119.199 348.652L145.724 337.755L119.199 311.654L92.6746 337.755Z" fill="#4F473B"/>
<path d="M118.214 308.926L145.724 281.86L120.38 271.542L95.2308 331.721L118.214 308.926Z" fill="#4F473B"/>
<path d="M79.9051 309.903C79.8822 319.755 83.6878 329.232 90.5081 336.391L116.826 273.485L79.8937 309.903L79.9051 309.903Z" fill="#4F473B"/>
<path d="M146.182 214.568C202.608 214.568 248.349 209.363 248.349 202.943C248.349 196.523 202.608 191.319 146.182 191.319C89.7571 191.319 44.0154 196.523 44.0154 202.943C44.0154 209.363 89.7571 214.568 146.182 214.568Z" fill="#4F473B"/>
</g>
<ellipse cx="246.741" cy="72.3989" rx="12.5" ry="12.4033" fill="#FBB03B"/>
<ellipse cx="268.937" cy="22.3259" rx="22" ry="22.3259" fill="#FBB03B"/>
<defs>
<clipPath id="clip0_107_1274">
<rect width="380" height="297.678" fill="white" transform="translate(0.113281 132.322)"/>
</clipPath>
</defs>
</svg>
