<svg width="205" height="161" viewBox="0 0 205 161" fill="none" xmlns="http://www.w3.org/2000/svg">
<g clip-path="url(#clip0_106_2242)">
<path d="M141.616 35.3935C141.164 35.1538 140.651 34.9018 140.051 34.6314C135.797 32.7262 129.471 30.987 121.76 29.6042C119.799 29.2539 117.771 28.9282 115.693 28.627C109.998 27.8096 103.864 27.1951 97.4324 26.7956C97.3025 26.7956 91.9721 26.5805 88.0206 26.433C85.6831 26.3408 83.828 26.2732 83.828 26.2732C83.828 26.2732 80.4207 26.2363 78.8067 26.2363C73.0743 26.2363 67.4161 26.4023 61.962 26.7096C52.7728 27.2319 44.1464 28.1784 36.6763 29.469C30.1709 30.5937 24.5375 31.9765 20.1655 33.5805C18.366 34.2381 17.0056 34.8527 15.9914 35.3935C15.843 35.4611 15.7008 35.5287 15.5524 35.5901V61.4146C15.5524 61.7218 15.5647 62.023 15.5709 62.3303C15.5709 62.3303 15.5586 62.3303 15.5524 62.3364V88.1608C15.5524 88.8491 15.5647 89.5375 15.5957 90.2196C15.7874 94.9949 16.6284 99.6226 18.0506 104.029C19.4729 108.436 21.4641 112.621 23.9562 116.511C26.4359 120.383 29.4041 123.966 32.7929 127.192C37.406 131.593 42.7921 135.329 48.7533 138.23C54.6836 141.119 61.1828 143.178 68.0654 144.235C71.5593 144.769 75.1459 145.052 78.8067 145.052C82.4675 145.052 85.7944 144.794 89.1646 144.29C96.14 143.257 102.732 141.192 108.743 138.285C114.753 135.379 120.177 131.617 124.821 127.192C128.209 123.96 131.184 120.371 133.663 116.499C136.162 112.596 138.153 108.405 139.575 103.998C140.991 99.5858 141.832 94.9519 142.018 90.1705C142.043 89.5067 142.061 88.8369 142.061 88.1731V62.3549C142.061 62.3549 142.049 62.3549 142.043 62.3487C142.043 62.0414 142.061 61.7341 142.061 61.433V35.5901C141.801 35.4795 141.826 35.498 141.622 35.3935H141.616Z" fill="url(#paint0_linear_106_2242)"/>
<path d="M89.381 40.9493C89.245 40.9493 89.1089 40.937 88.9729 40.937C88.9729 40.937 88.9605 40.937 88.9543 40.937C89.0966 40.937 89.2388 40.9493 89.381 40.9493Z" fill="#CDFCFF"/>
<path d="M117.338 102.339C119.698 102.339 121.611 100.438 121.611 98.0924C121.611 95.747 119.698 93.8457 117.338 93.8457C114.978 93.8457 113.065 95.747 113.065 98.0924C113.065 100.438 114.978 102.339 117.338 102.339Z" fill="white"/>
<path d="M107.252 125.349C111.849 125.349 115.576 121.645 115.576 117.076C115.576 112.508 111.849 108.804 107.252 108.804C102.655 108.804 98.9288 112.508 98.9288 117.076C98.9288 121.645 102.655 125.349 107.252 125.349Z" fill="white"/>
<path d="M145.808 89.8446C145.66 105.51 138.728 120.248 126.286 131.347C113.671 142.606 96.8944 148.807 79.0417 148.807C42.2232 148.807 12.2749 122.128 12.2749 89.3345V0C5.49742 0 0 5.46356 0 12.1993V89.3284C0 128.845 35.4642 161 79.0417 161C99.9244 161 119.614 153.693 134.486 140.418C144.708 131.298 151.856 120.094 155.437 107.852C183.041 106.358 205 85.4381 205 59.9394C205 34.4407 184.433 14.8727 158.089 12.23V12.1932C158.089 5.45742 152.598 0 145.821 0V12.1993V89.8446H145.808ZM158.399 95.3266V24.5461C177.804 27.1703 192.719 42.043 192.719 59.9333C192.719 77.8235 177.81 92.6962 158.399 95.3205V95.3266Z" fill="#4F473B"/>
<path d="M64.2994 126.215C81.0067 126.215 94.5506 112.754 94.5506 96.1499C94.5506 79.5455 81.0067 66.085 64.2994 66.085C47.5921 66.085 34.0481 79.5455 34.0481 96.1499C34.0481 112.754 47.5921 126.215 64.2994 126.215Z" fill="#FFED2E"/>
<path d="M64.2994 120.622C77.8989 120.622 88.9234 109.666 88.9234 96.1501C88.9234 82.6344 77.8989 71.6777 64.2994 71.6777C50.7 71.6777 39.6754 82.6344 39.6754 96.1501C39.6754 109.666 50.7 120.622 64.2994 120.622Z" fill="white"/>
<path d="M79.827 81.7197L65.3074 96.0454L79.827 110.371C87.4578 102.326 87.4578 89.7645 79.827 81.7197Z" fill="#4F473B"/>
<path d="M49.9344 111.108L64.2438 117.002L78.5532 111.108L64.2438 96.9917L49.9344 111.108Z" fill="#4F473B"/>
<path d="M63.7119 95.5169L78.5531 80.8777L64.8807 75.2974L51.3134 107.845L63.7119 95.5169Z" fill="#4F473B"/>
<path d="M43.0456 96.0452C43.0332 101.374 45.0863 106.499 48.7657 110.371L62.9637 76.3481L43.0394 96.0452H43.0456Z" fill="#4F473B"/>
<path d="M78.8005 44.4829C109.24 44.4829 133.917 41.6681 133.917 38.1958C133.917 34.7235 109.24 31.9087 78.8005 31.9087C48.3606 31.9087 23.6841 34.7235 23.6841 38.1958C23.6841 41.6681 48.3606 44.4829 78.8005 44.4829Z" fill="#4F473B"/>
</g>
<defs>
<linearGradient id="paint0_linear_106_2242" x1="78.8067" y1="26.2363" x2="78.8067" y2="145.052" gradientUnits="userSpaceOnUse">
<stop stop-color="#FFED2E"/>
<stop offset="0.4493" stop-color="#FBB03B" stop-opacity="0"/>
<stop offset="0.97563" stop-color="#F24822"/>
</linearGradient>
<clipPath id="clip0_106_2242">
<rect width="205" height="161" fill="white"/>
</clipPath>
</defs>
</svg>
