<svg width="245" height="88" viewBox="0 0 245 88" fill="none" xmlns="http://www.w3.org/2000/svg">
<g clip-path="url(#clip0_106_1951)">
<path d="M239.465 8.59001C234.958 3.34721 228.092 0 220.416 0H195.817C184.599 0 175.507 8.61819 175.507 19.2518V80.3331C175.507 82.7008 177.528 84.6176 180.021 84.6176C182.514 84.6176 184.535 82.7008 184.535 80.3331V75.5836H184.563V46.6073H223.007C230.169 46.6073 236.852 43.1051 240.592 37.3126C247.437 26.7143 245.704 15.8411 239.458 8.59705L239.465 8.59001ZM220.416 38.0103H184.57V23.2966C184.57 15.1858 191.528 8.58296 200.092 8.58296H220.416C228.972 8.58296 235.93 15.1858 235.93 23.2966C235.93 31.4074 228.972 38.0103 220.416 38.0103Z" fill="#4F473B"/>
<path d="M84.7747 77.2819L52.2958 45.3459C50.5916 43.6758 50.5916 40.9488 52.2958 39.2787L84.7042 7.3991C84.7887 7.30045 84.8803 7.21589 84.9577 7.11723C85.0986 6.95516 85.2254 6.77194 85.3451 6.58873C85.4155 6.46893 85.4859 6.34914 85.5493 6.22229C85.5775 6.15887 85.6056 6.09545 85.6338 6.03203C85.669 5.93338 85.7113 5.83472 85.7465 5.74311C85.7817 5.63741 85.8099 5.53876 85.838 5.4401C85.9225 5.09481 85.9718 4.73543 85.9718 4.36195C85.9718 2.0647 84.1338 0.183216 81.8239 0.0704677C81.7535 0.0704677 81.6761 0.0704677 81.5986 0.0704677C81.4577 0.0704677 81.3169 0.0704677 81.1761 0.0916079C81.0563 0.105701 80.9366 0.119795 80.8239 0.140935C80.8239 0.140935 80.8099 0.140935 80.8028 0.140935C80.6831 0.162076 80.5634 0.190263 80.4437 0.225496C80.3873 0.23959 80.3239 0.26073 80.2676 0.281871C80.2113 0.295964 80.1549 0.317104 80.0916 0.338245C80.0282 0.359385 79.9648 0.380525 79.9085 0.408712C79.8592 0.429853 79.8028 0.450993 79.7535 0.47918C79.6408 0.528507 79.5282 0.591928 79.4225 0.648302C79.3592 0.683536 79.2887 0.725817 79.2183 0.768097C79.0211 0.901986 78.838 1.04292 78.662 1.1909C78.6197 1.23318 78.5704 1.27546 78.5282 1.32479L78.3451 1.50801L29 50.0179C25.7042 53.2595 20.2183 49.8347 21.8099 45.5221L26.669 32.3024L29.9507 23.3812L35.3873 8.59001L36.4296 5.75016C37.4577 2.95259 35.3521 0 32.3239 0C30.4859 0 28.8451 1.13453 28.2183 2.8328L26.0986 8.59001L23.1268 16.6726L19.8451 25.5939L8.73239 55.8033L0.591549 77.9513L0.260563 78.8463C0.084507 79.3113 0 79.8117 0 80.3049C0 81.5029 0.485916 82.574 1.28169 83.3491C2.07042 84.1243 3.16197 84.6035 4.3662 84.6035C5.57042 84.6035 6.64085 84.1525 7.45775 83.3491L8.14789 82.6656L14.9155 76.0135L39.9366 51.4062C41.6408 49.7361 44.4085 49.7361 46.1127 51.4062L78.5986 83.3421C79.4155 84.1454 80.5282 84.5964 81.6901 84.5964C84.0986 84.5964 86.0563 82.6726 86.0563 80.3049C86.0563 79.1634 85.5915 78.0711 84.7747 77.2607V77.2819Z" fill="#4F473B"/>
<path d="M165.965 7.70229C165.965 5.70101 165.965 4.24233 165.479 3.50946C164.775 2.74137 163.38 2.36084 161.317 2.36084C159.254 2.36084 157.859 2.74841 157.155 3.50946C156.669 4.24233 156.669 5.70805 156.669 7.70229V51.5755C156.669 57.7766 156.669 66.275 151.021 73.0258L150.979 73.0751C146.303 78.4448 139.176 81.1648 129.81 81.1648C120.444 81.1648 113.106 78.3672 108.5 73.0751L108.458 73.0258C102.81 66.275 102.81 57.7766 102.81 51.5755V7.70229C102.81 5.70101 102.81 4.24233 102.324 3.50946C101.62 2.74841 100.225 2.36084 98.162 2.36084C96.0986 2.36084 94.5705 2.74841 93.8592 3.51651C93.3733 4.25642 93.3733 5.7151 93.3733 7.70933V50.6171C93.3733 60.2782 93.3733 69.4108 100.93 77.7612C107.127 84.66 116.521 88.0072 129.662 88.0072C142.803 88.0072 152.366 84.5684 158.373 77.7824C165.951 69.4038 165.951 58.9886 165.951 50.6171V7.70229H165.965Z" fill="#4F473B"/>
</g>
<defs>
<clipPath id="clip0_106_1951">
<rect width="245" height="88" fill="white"/>
</clipPath>
</defs>
</svg>
