<svg width="141" height="43" viewBox="0 0 141 43" fill="none" xmlns="http://www.w3.org/2000/svg">
<path d="M22.8252 21.5903L37.1728 36.0219C40.6956 32.255 42.8419 27.1699 42.8419 21.5903C42.8419 16.0107 40.6956 10.9255 37.1728 7.15869L22.8252 21.5903Z" fill="#A7A39D"/>
<path d="M21.8223 22.5791L7.66125 36.8223L21.8223 42.708L35.9833 36.8223L21.8223 22.5791Z" fill="#A7A39D"/>
<path d="M21.3088 21.0723L35.9831 6.33467L22.4753 0.708008L8.96753 33.5028L21.3088 21.0723Z" fill="#A7A39D"/>
<path d="M0.778809 21.5909C0.778809 27.1469 2.92512 32.2086 6.40122 35.9754L20.4922 1.76807L0.778809 21.5909Z" fill="#A7A39D"/>
<path d="M134.456 17.541C130.7 17.541 129.324 20.3426 129.324 20.3426V17.8706H126.524V34.3268H129.324V23.5679C129.324 22.1083 130.677 20.0601 133.663 20.0601C136.439 20.0601 137.979 21.7551 137.979 24.8392V34.3268H140.779V24.3448C140.755 20.2249 138.282 17.541 134.456 17.541Z" fill="#A7A39D"/>
<path d="M119.293 12.4092H116.493V15.6816C116.493 16.8823 115.513 17.8711 114.324 17.8711H111.174L105.972 30.4899L100.769 17.8711H97.8997L104.549 33.9977L102.846 38.1647H99.1828V40.6132H102.029C103.662 40.6132 105.108 39.6244 105.738 38.1176L113.064 20.343H116.517V30.1603C116.517 32.7029 118.01 34.3273 120.319 34.3273H124.169V31.8789H119.293V20.343H124.169V17.8711H119.293V12.4092V12.4092Z" fill="#A7A39D"/>
<path d="M96.1261 23.5208C96.1261 19.8482 93.5132 17.541 89.3372 17.541C85.4645 17.541 82.7583 19.9659 82.245 23.8033H84.9746C85.5578 20.9547 87.5175 19.9188 89.2672 19.9188C91.8101 19.9188 93.3499 21.3549 93.3499 23.7798V24.8863H89.5005C84.0881 24.8863 81.7551 26.6284 81.7551 29.6183C81.7551 32.6789 84.1581 34.5623 87.9374 34.5623C90.9703 34.5623 92.72 33.4322 93.5132 31.643C93.7232 33.1497 94.563 34.3033 96.7327 34.3033H98.5757V31.8313H96.1494V23.5208H96.1261ZM93.3265 29.4771C93.3265 31.1486 91.2736 32.467 88.404 32.467C86.0944 32.467 84.6713 31.5724 84.6713 29.9009V29.2417C84.6713 27.6643 86.1644 26.7932 89.4772 26.7932H93.3265V29.4771Z" fill="#A7A39D"/>
<path d="M77.2989 11.2085H74.4994V30.1367C74.4994 32.6793 75.9925 34.3037 78.3021 34.3037H79.7252V31.8553H77.2756V11.2085H77.2989Z" fill="#A7A39D"/>
<path d="M58.1217 11.2085H55.3221V34.3037H58.1217V11.2085Z" fill="#A7A39D"/>
<path d="M72.5641 11.2085H69.088L60.4561 19.8957C59.6395 20.7197 59.5696 22.0145 60.2928 22.9327L69.3213 34.3037H72.844L62.5324 21.3082L72.5641 11.2085Z" fill="#A7A39D"/>
</svg>
