<svg width="163" height="235" viewBox="0 0 163 235" fill="none" xmlns="http://www.w3.org/2000/svg">
<circle cx="86" cy="178" r="39" fill="black" fill-opacity="0.1" stroke="#FBB03B" stroke-width="2"/>
<path d="M55.1813 173.149V164.049H57.1573L60.0563 169.821L62.9163 164.049H64.8923V173.149H63.2283V166.87L60.6933 171.849H59.3803L56.8453 166.87V173.149H55.1813ZM69.1018 173.305C68.4518 173.305 67.8755 173.166 67.3728 172.889C66.8702 172.612 66.4758 172.222 66.1898 171.719C65.9038 171.216 65.7608 170.636 65.7608 169.977C65.7608 169.31 65.8995 168.716 66.1768 168.196C66.4628 167.676 66.8528 167.273 67.3468 166.987C67.8495 166.692 68.4388 166.545 69.1148 166.545C69.7475 166.545 70.3065 166.684 70.7918 166.961C71.2772 167.238 71.6542 167.62 71.9228 168.105C72.2002 168.582 72.3388 169.115 72.3388 169.704C72.3388 169.799 72.3345 169.899 72.3258 170.003C72.3258 170.107 72.3215 170.215 72.3128 170.328H67.4118C67.4465 170.831 67.6198 171.225 67.9318 171.511C68.2525 171.797 68.6382 171.94 69.0888 171.94C69.4268 171.94 69.7085 171.866 69.9338 171.719C70.1678 171.563 70.3412 171.364 70.4538 171.121H72.1438C72.0225 171.528 71.8188 171.901 71.5328 172.239C71.2555 172.568 70.9088 172.828 70.4928 173.019C70.0855 173.21 69.6218 173.305 69.1018 173.305ZM69.1148 167.897C68.7075 167.897 68.3478 168.014 68.0358 168.248C67.7238 168.473 67.5245 168.82 67.4378 169.288H70.6488C70.6228 168.863 70.4668 168.525 70.1808 168.274C69.8948 168.023 69.5395 167.897 69.1148 167.897ZM75.8471 173.149C75.1711 173.149 74.6294 172.984 74.2221 172.655C73.8148 172.326 73.6111 171.741 73.6111 170.9V168.092H72.5061V166.701H73.6111L73.8061 164.972H75.2751V166.701H77.0171V168.092H75.2751V170.913C75.2751 171.225 75.3401 171.442 75.4701 171.563C75.6088 171.676 75.8428 171.732 76.1721 171.732H76.9781V173.149H75.8471ZM80.0188 173.305C79.4641 173.305 79.0091 173.218 78.6538 173.045C78.2984 172.863 78.0341 172.625 77.8608 172.33C77.6874 172.035 77.6008 171.71 77.6008 171.355C77.6008 170.757 77.8348 170.272 78.3028 169.899C78.7708 169.526 79.4728 169.34 80.4088 169.34H82.0468V169.184C82.0468 168.742 81.9211 168.417 81.6698 168.209C81.4184 168.001 81.1064 167.897 80.7338 167.897C80.3958 167.897 80.1011 167.979 79.8498 168.144C79.5984 168.3 79.4424 168.534 79.3818 168.846H77.7568C77.8001 168.378 77.9561 167.971 78.2248 167.624C78.5021 167.277 78.8574 167.013 79.2908 166.831C79.7241 166.64 80.2094 166.545 80.7468 166.545C81.6654 166.545 82.3891 166.775 82.9178 167.234C83.4464 167.693 83.7108 168.343 83.7108 169.184V173.149H82.2938L82.1378 172.109C81.9471 172.456 81.6784 172.742 81.3318 172.967C80.9938 173.192 80.5561 173.305 80.0188 173.305ZM80.3958 172.005C80.8724 172.005 81.2408 171.849 81.5008 171.537C81.7694 171.225 81.9384 170.839 82.0078 170.38H80.5908C80.1488 170.38 79.8324 170.462 79.6418 170.627C79.4511 170.783 79.3558 170.978 79.3558 171.212C79.3558 171.463 79.4511 171.658 79.6418 171.797C79.8324 171.936 80.0838 172.005 80.3958 172.005ZM86.2003 173.149L83.8343 166.701H85.5763L87.2143 171.576L88.8523 166.701H90.5943L88.2153 173.149H86.2003ZM93.8094 173.305C93.1594 173.305 92.5831 173.166 92.0804 172.889C91.5778 172.612 91.1834 172.222 90.8974 171.719C90.6114 171.216 90.4684 170.636 90.4684 169.977C90.4684 169.31 90.6071 168.716 90.8844 168.196C91.1704 167.676 91.5604 167.273 92.0544 166.987C92.5571 166.692 93.1464 166.545 93.8224 166.545C94.4551 166.545 95.0141 166.684 95.4994 166.961C95.9848 167.238 96.3618 167.62 96.6304 168.105C96.9078 168.582 97.0464 169.115 97.0464 169.704C97.0464 169.799 97.0421 169.899 97.0334 170.003C97.0334 170.107 97.0291 170.215 97.0204 170.328H92.1194C92.1541 170.831 92.3274 171.225 92.6394 171.511C92.9601 171.797 93.3458 171.94 93.7964 171.94C94.1344 171.94 94.4161 171.866 94.6414 171.719C94.8754 171.563 95.0488 171.364 95.1614 171.121H96.8514C96.7301 171.528 96.5264 171.901 96.2404 172.239C95.9631 172.568 95.6164 172.828 95.2004 173.019C94.7931 173.21 94.3294 173.305 93.8094 173.305ZM93.8224 167.897C93.4151 167.897 93.0554 168.014 92.7434 168.248C92.4314 168.473 92.2321 168.82 92.1454 169.288H95.3564C95.3304 168.863 95.1744 168.525 94.8884 168.274C94.6024 168.023 94.2471 167.897 93.8224 167.897ZM97.796 173.149V166.701H99.278L99.434 167.91C99.668 167.494 99.9843 167.165 100.383 166.922C100.79 166.671 101.267 166.545 101.813 166.545V168.3H101.345C100.981 168.3 100.656 168.356 100.37 168.469C100.084 168.582 99.8586 168.777 99.694 169.054C99.538 169.331 99.46 169.717 99.46 170.211V173.149H97.796ZM104.965 173.305C104.393 173.305 103.891 173.214 103.457 173.032C103.024 172.841 102.677 172.581 102.417 172.252C102.157 171.923 102.001 171.541 101.949 171.108H103.626C103.678 171.359 103.817 171.576 104.042 171.758C104.276 171.931 104.575 172.018 104.939 172.018C105.303 172.018 105.568 171.944 105.732 171.797C105.906 171.65 105.992 171.481 105.992 171.29C105.992 171.013 105.871 170.826 105.628 170.731C105.386 170.627 105.048 170.527 104.614 170.432C104.337 170.371 104.055 170.298 103.769 170.211C103.483 170.124 103.219 170.016 102.976 169.886C102.742 169.747 102.552 169.574 102.404 169.366C102.257 169.149 102.183 168.885 102.183 168.573C102.183 168.001 102.409 167.52 102.859 167.13C103.319 166.74 103.96 166.545 104.783 166.545C105.546 166.545 106.153 166.723 106.603 167.078C107.063 167.433 107.336 167.923 107.422 168.547H105.849C105.754 168.07 105.394 167.832 104.77 167.832C104.458 167.832 104.216 167.893 104.042 168.014C103.878 168.135 103.795 168.287 103.795 168.469C103.795 168.66 103.921 168.811 104.172 168.924C104.424 169.037 104.757 169.141 105.173 169.236C105.624 169.34 106.036 169.457 106.408 169.587C106.79 169.708 107.093 169.895 107.318 170.146C107.544 170.389 107.656 170.74 107.656 171.199C107.665 171.598 107.561 171.957 107.344 172.278C107.128 172.599 106.816 172.85 106.408 173.032C106.001 173.214 105.52 173.305 104.965 173.305ZM111.613 173.305C110.963 173.305 110.387 173.166 109.884 172.889C109.382 172.612 108.987 172.222 108.701 171.719C108.415 171.216 108.272 170.636 108.272 169.977C108.272 169.31 108.411 168.716 108.688 168.196C108.974 167.676 109.364 167.273 109.858 166.987C110.361 166.692 110.95 166.545 111.626 166.545C112.259 166.545 112.818 166.684 113.303 166.961C113.789 167.238 114.166 167.62 114.434 168.105C114.712 168.582 114.85 169.115 114.85 169.704C114.85 169.799 114.846 169.899 114.837 170.003C114.837 170.107 114.833 170.215 114.824 170.328H109.923C109.958 170.831 110.131 171.225 110.443 171.511C110.764 171.797 111.15 171.94 111.6 171.94C111.938 171.94 112.22 171.866 112.445 171.719C112.679 171.563 112.853 171.364 112.965 171.121H114.655C114.534 171.528 114.33 171.901 114.044 172.239C113.767 172.568 113.42 172.828 113.004 173.019C112.597 173.21 112.133 173.305 111.613 173.305ZM111.626 167.897C111.219 167.897 110.859 168.014 110.547 168.248C110.235 168.473 110.036 168.82 109.949 169.288H113.16C113.134 168.863 112.978 168.525 112.692 168.274C112.406 168.023 112.051 167.897 111.626 167.897ZM55.0315 190.149V181.049H56.6955V184.832H60.7775V181.049H62.4415V190.149H60.7775V186.184H56.6955V190.149H55.0315ZM64.4182 182.7C64.1148 182.7 63.8635 182.609 63.6642 182.427C63.4735 182.245 63.3782 182.015 63.3782 181.738C63.3782 181.461 63.4735 181.235 63.6642 181.062C63.8635 180.88 64.1148 180.789 64.4182 180.789C64.7215 180.789 64.9685 180.88 65.1592 181.062C65.3585 181.235 65.4582 181.461 65.4582 181.738C65.4582 182.015 65.3585 182.245 65.1592 182.427C64.9685 182.609 64.7215 182.7 64.4182 182.7ZM63.5862 190.149V183.701H65.2502V190.149H63.5862ZM69.21 190.149C68.534 190.149 67.9923 189.984 67.585 189.655C67.1777 189.326 66.974 188.741 66.974 187.9V185.092H65.869V183.701H66.974L67.169 181.972H68.638V183.701H70.38V185.092H68.638V187.913C68.638 188.225 68.703 188.442 68.833 188.563C68.9717 188.676 69.2057 188.732 69.535 188.732H70.341V190.149H69.21ZM74.1526 190.305C73.494 190.305 72.9133 190.162 72.4106 189.876C71.908 189.59 71.5093 189.191 71.2146 188.68C70.9286 188.169 70.7856 187.584 70.7856 186.925C70.7856 186.266 70.9286 185.681 71.2146 185.17C71.5093 184.659 71.908 184.26 72.4106 183.974C72.9133 183.688 73.494 183.545 74.1526 183.545C74.976 183.545 75.6693 183.762 76.2326 184.195C76.796 184.62 77.1556 185.209 77.3116 185.963H75.5566C75.47 185.651 75.2966 185.408 75.0366 185.235C74.7853 185.053 74.4863 184.962 74.1396 184.962C73.6803 184.962 73.2903 185.135 72.9696 185.482C72.649 185.829 72.4886 186.31 72.4886 186.925C72.4886 187.54 72.649 188.021 72.9696 188.368C73.2903 188.715 73.6803 188.888 74.1396 188.888C74.4863 188.888 74.7853 188.801 75.0366 188.628C75.2966 188.455 75.47 188.208 75.5566 187.887H77.3116C77.1556 188.615 76.796 189.2 76.2326 189.642C75.6693 190.084 74.976 190.305 74.1526 190.305ZM78.1386 190.149V180.789H79.8026V184.689C80.0192 184.334 80.3096 184.056 80.6736 183.857C81.0462 183.649 81.4709 183.545 81.9476 183.545C82.7449 183.545 83.3602 183.796 83.7936 184.299C84.2356 184.802 84.4566 185.538 84.4566 186.509V190.149H82.8056V186.665C82.8056 186.11 82.6929 185.686 82.4676 185.391C82.2509 185.096 81.9042 184.949 81.4276 184.949C80.9596 184.949 80.5696 185.114 80.2576 185.443C79.9542 185.772 79.8026 186.232 79.8026 186.821V190.149H78.1386ZM87.8454 190.149V180.789H89.5094V184.689C89.7261 184.334 90.0164 184.056 90.3804 183.857C90.7531 183.649 91.1777 183.545 91.6544 183.545C92.4517 183.545 93.0671 183.796 93.5004 184.299C93.9424 184.802 94.1634 185.538 94.1634 186.509V190.149H92.5124V186.665C92.5124 186.11 92.3997 185.686 92.1744 185.391C91.9577 185.096 91.6111 184.949 91.1344 184.949C90.6664 184.949 90.2764 185.114 89.9644 185.443C89.6611 185.772 89.5094 186.232 89.5094 186.821V190.149H87.8454ZM96.0016 182.7C95.6982 182.7 95.4469 182.609 95.2476 182.427C95.0569 182.245 94.9616 182.015 94.9616 181.738C94.9616 181.461 95.0569 181.235 95.2476 181.062C95.4469 180.88 95.6982 180.789 96.0016 180.789C96.3049 180.789 96.5519 180.88 96.7426 181.062C96.9419 181.235 97.0416 181.461 97.0416 181.738C97.0416 182.015 96.9419 182.245 96.7426 182.427C96.5519 182.609 96.3049 182.7 96.0016 182.7ZM95.1696 190.149V183.701H96.8336V190.149H95.1696ZM97.9204 190.149V180.789H99.5844V186.314L101.872 183.701H103.848L101.209 186.639L104.277 190.149H102.197L99.5844 186.912V190.149H97.9204ZM107.259 190.305C106.609 190.305 106.033 190.166 105.53 189.889C105.027 189.612 104.633 189.222 104.347 188.719C104.061 188.216 103.918 187.636 103.918 186.977C103.918 186.31 104.057 185.716 104.334 185.196C104.62 184.676 105.01 184.273 105.504 183.987C106.007 183.692 106.596 183.545 107.272 183.545C107.905 183.545 108.464 183.684 108.949 183.961C109.434 184.238 109.811 184.62 110.08 185.105C110.357 185.582 110.496 186.115 110.496 186.704C110.496 186.799 110.492 186.899 110.483 187.003C110.483 187.107 110.479 187.215 110.47 187.328H105.569C105.604 187.831 105.777 188.225 106.089 188.511C106.41 188.797 106.795 188.94 107.246 188.94C107.584 188.94 107.866 188.866 108.091 188.719C108.325 188.563 108.498 188.364 108.611 188.121H110.301C110.18 188.528 109.976 188.901 109.69 189.239C109.413 189.568 109.066 189.828 108.65 190.019C108.243 190.21 107.779 190.305 107.259 190.305ZM107.272 184.897C106.865 184.897 106.505 185.014 106.193 185.248C105.881 185.473 105.682 185.82 105.595 186.288H108.806C108.78 185.863 108.624 185.525 108.338 185.274C108.052 185.023 107.697 184.897 107.272 184.897ZM111.245 190.149V183.701H112.727L112.883 184.91C113.117 184.494 113.434 184.165 113.832 183.922C114.24 183.671 114.716 183.545 115.262 183.545V185.3H114.794C114.43 185.3 114.105 185.356 113.819 185.469C113.533 185.582 113.308 185.777 113.143 186.054C112.987 186.331 112.909 186.717 112.909 187.211V190.149H111.245Z" fill="#FBB03B"/>
<path d="M77.7932 0.366672L79.4632 88.3477M79.4632 88.3477L20.9677 201.189H150.651L79.4632 88.3477Z" stroke="#EDECEB" stroke-width="2"/>
<path d="M162.861 195.749C162.861 200.805 160.763 205.811 156.686 210.482C152.609 215.153 146.634 219.398 139.101 222.973C131.568 226.548 122.625 229.384 112.783 231.318C102.941 233.253 92.3926 234.249 81.7397 234.249C71.0867 234.249 60.538 233.253 50.6959 231.318C40.8539 229.384 31.9111 226.548 24.3784 222.973C16.8456 219.398 10.8702 215.153 6.79351 210.482C2.71679 205.811 0.618529 200.805 0.61853 195.749L81.7397 195.749H162.861Z" fill="url(#paint0_linear_107_1276)"/>
<defs>
<linearGradient id="paint0_linear_107_1276" x1="81.7397" y1="234.249" x2="89.2218" y2="196.949" gradientUnits="userSpaceOnUse">
<stop stop-color="#4F473B"/>
<stop offset="0.938312" stop-color="#A7A39D"/>
</linearGradient>
</defs>
</svg>
