<svg width="20" height="20" viewBox="0 0 20 20" fill="none" xmlns="http://www.w3.org/2000/svg">
<path d="M18.7574 0.605957L11.0486 6.49584L12.4821 3.02474L18.7574 0.605957Z" fill="#E17726" stroke="#E17726" stroke-width="0.25" stroke-linecap="round" stroke-linejoin="round"/>
<path d="M0.976074 0.605957L8.61627 6.55081L7.25141 3.02473L0.976074 0.605957Z" fill="#E27625" stroke="#E27625" stroke-width="0.25" stroke-linecap="round" stroke-linejoin="round"/>
<path d="M15.9818 14.2627L13.9307 17.4982L18.3226 18.7469L19.5808 14.3334L15.9818 14.2627Z" fill="#E27625" stroke="#E27625" stroke-width="0.25" stroke-linecap="round" stroke-linejoin="round"/>
<path d="M0.160156 14.3334L1.41064 18.7469L5.795 17.4982L3.7515 14.2627L0.160156 14.3334Z" fill="#E27625" stroke="#E27625" stroke-width="0.25" stroke-linecap="round" stroke-linejoin="round"/>
<path d="M5.55859 8.79681L4.33862 10.6973L8.68483 10.9015L8.53997 6.07178L5.55859 8.79681Z" fill="#E27625" stroke="#E27625" stroke-width="0.25" stroke-linecap="round" stroke-linejoin="round"/>
<path d="M14.1745 8.79686L11.1475 6.01685L11.0483 10.9015L15.3945 10.6973L14.1745 8.79686Z" fill="#E27625" stroke="#E27625" stroke-width="0.25" stroke-linecap="round" stroke-linejoin="round"/>
<path d="M5.79492 17.4981L8.42549 16.1867L6.16093 14.3647L5.79492 17.4981Z" fill="#E27625" stroke="#E27625" stroke-width="0.25" stroke-linecap="round" stroke-linejoin="round"/>
<path d="M11.3079 16.1867L13.9308 17.4981L13.5724 14.3647L11.3079 16.1867Z" fill="#E27625" stroke="#E27625" stroke-width="0.25" stroke-linecap="round" stroke-linejoin="round"/>
<path d="M13.9308 17.4982L11.3079 16.1868L11.5213 17.9459L11.4984 18.6919L13.9308 17.4982Z" fill="#D5BFB2" stroke="#D5BFB2" stroke-width="0.25" stroke-linecap="round" stroke-linejoin="round"/>
<path d="M5.79492 17.4982L8.23492 18.6919L8.21966 17.9459L8.42549 16.1868L5.79492 17.4982Z" fill="#D5BFB2" stroke="#D5BFB2" stroke-width="0.25" stroke-linecap="round" stroke-linejoin="round"/>
<path d="M8.2806 13.2025L6.09985 12.5429L7.64008 11.8125L8.2806 13.2025Z" fill="#233447" stroke="#233447" stroke-width="0.25" stroke-linecap="round" stroke-linejoin="round"/>
<path d="M11.4526 13.2025L12.0932 11.8125L13.641 12.5429L11.4526 13.2025Z" fill="#233447" stroke="#233447" stroke-width="0.25" stroke-linecap="round" stroke-linejoin="round"/>
<path d="M5.79493 17.4982L6.1762 14.2627L3.75146 14.3334L5.79493 17.4982Z" fill="#CC6228" stroke="#CC6228" stroke-width="0.25" stroke-linecap="round" stroke-linejoin="round"/>
<path d="M13.5571 14.2627L13.9308 17.4982L15.9819 14.3334L13.5571 14.2627Z" fill="#CC6228" stroke="#CC6228" stroke-width="0.25" stroke-linecap="round" stroke-linejoin="round"/>
<path d="M15.3945 10.6973L11.0483 10.9014L11.4524 13.2025L12.093 11.8124L13.6408 12.5428L15.3945 10.6973Z" fill="#CC6228" stroke="#CC6228" stroke-width="0.25" stroke-linecap="round" stroke-linejoin="round"/>
<path d="M6.09998 12.5428L7.64021 11.8124L8.28073 13.2025L8.68483 10.9014L4.33862 10.6973L6.09998 12.5428Z" fill="#CC6228" stroke="#CC6228" stroke-width="0.25" stroke-linecap="round" stroke-linejoin="round"/>
<path d="M4.33862 10.6973L6.161 14.3647L6.09995 12.5428L4.33862 10.6973Z" fill="#E27525" stroke="#E27525" stroke-width="0.25" stroke-linecap="round" stroke-linejoin="round"/>
<path d="M13.6411 12.5428L13.5725 14.3647L15.3949 10.6973L13.6411 12.5428Z" fill="#E27525" stroke="#E27525" stroke-width="0.25" stroke-linecap="round" stroke-linejoin="round"/>
<path d="M8.68492 10.9016L8.28076 13.2026L8.79163 15.9198L8.90602 12.3388L8.68492 10.9016Z" fill="#E27525" stroke="#E27525" stroke-width="0.25" stroke-linecap="round" stroke-linejoin="round"/>
<path d="M11.0485 10.9016L10.835 12.3309L10.9417 15.9198L11.4526 13.2026L11.0485 10.9016Z" fill="#E27525" stroke="#E27525" stroke-width="0.25" stroke-linecap="round" stroke-linejoin="round"/>
<path d="M11.4528 13.2027L10.9419 15.9198L11.3079 16.1868L13.5725 14.3649L13.6411 12.543L11.4528 13.2027Z" fill="#F5841F" stroke="#F5841F" stroke-width="0.25" stroke-linecap="round" stroke-linejoin="round"/>
<path d="M6.09985 12.543L6.16089 14.3649L8.42546 16.1868L8.79147 15.9198L8.2806 13.2027L6.09985 12.543Z" fill="#F5841F" stroke="#F5841F" stroke-width="0.25" stroke-linecap="round" stroke-linejoin="round"/>
<path d="M11.4984 18.692L11.5212 17.9459L11.323 17.7731H8.41029L8.21966 17.9459L8.23492 18.692L5.79492 17.4983L6.64891 18.2208L8.37977 19.4537H11.3458L13.0843 18.2208L13.9307 17.4983L11.4984 18.692Z" fill="#C0AC9D" stroke="#C0AC9D" stroke-width="0.25" stroke-linecap="round" stroke-linejoin="round"/>
<path d="M11.3078 16.1866L10.9418 15.9197H8.79157L8.42562 16.1866L8.21973 17.9458L8.41036 17.773H11.3231L11.5213 17.9458L11.3078 16.1866Z" fill="#161616" stroke="#161616" stroke-width="0.25" stroke-linecap="round" stroke-linejoin="round"/>
<path d="M19.0852 6.88062L19.7334 3.62943L18.7574 0.605957L11.3079 6.29953L14.1748 8.79681L18.2236 10.0141L19.1158 8.9382L18.7269 8.64759L19.3445 8.0665L18.8718 7.68953L19.4894 7.20262L19.0852 6.88062Z" fill="#763E1A" stroke="#763E1A" stroke-width="0.25" stroke-linecap="round" stroke-linejoin="round"/>
<path d="M0 3.62943L0.655744 6.88062L0.236375 7.20262L0.861617 7.68953L0.388872 8.0665L1.00649 8.64759L0.617617 8.9382L1.50974 10.0141L5.5586 8.79681L8.42553 6.29953L0.975992 0.605957L0 3.62943Z" fill="#763E1A" stroke="#763E1A" stroke-width="0.25" stroke-linecap="round" stroke-linejoin="round"/>
<path d="M18.2237 10.0141L14.1749 8.79688L15.3949 10.6974L13.5725 14.3648L15.982 14.3334H19.5809L18.2237 10.0141Z" fill="#F5841F" stroke="#F5841F" stroke-width="0.25" stroke-linecap="round" stroke-linejoin="round"/>
<path d="M5.55858 8.79688L1.50977 10.0141L0.160156 14.3334H3.7515L6.16095 14.3648L4.33862 10.6974L5.55858 8.79688Z" fill="#F5841F" stroke="#F5841F" stroke-width="0.25" stroke-linecap="round" stroke-linejoin="round"/>
<path d="M11.0484 10.9016L11.3077 6.29965L12.4819 3.0249H7.25122L8.42544 6.29965L8.68469 10.9016L8.78382 12.3466L8.79145 15.9198H10.9417L10.9493 12.3466L11.0484 10.9016Z" fill="#F5841F" stroke="#F5841F" stroke-width="0.25" stroke-linecap="round" stroke-linejoin="round"/>
</svg>
