<svg width="114" height="30" viewBox="0 0 114 30" fill="none" xmlns="http://www.w3.org/2000/svg">
<path d="M112.317 6.05783C110.943 4.47888 108.857 3.46924 106.522 3.46924H99.0407C95.6281 3.46924 92.8625 6.06727 92.8625 9.27234V27.685C92.8625 28.399 93.4778 28.9746 94.2358 28.9746C94.9938 28.9746 95.6091 28.3958 95.6091 27.685V26.2507H95.6186V17.5131H107.312C109.491 17.5131 111.524 16.4562 112.662 14.7106C114.743 11.5149 114.217 8.23753 112.317 6.05154V6.05783ZM106.522 14.9276H95.6186V10.4927C95.6186 8.04881 97.7372 6.05783 100.341 6.05783H106.526C109.129 6.05783 111.245 8.04881 111.245 10.4927C111.245 12.9366 109.126 14.9276 106.526 14.9276H106.522Z" fill="#4F473B"/>
<path d="M65.2575 26.7664L55.3782 17.1386C54.858 16.6354 54.858 15.8144 55.3782 15.308L65.2385 5.69911C65.2638 5.6708 65.2924 5.64249 65.3146 5.61418C65.3558 5.56386 65.397 5.51039 65.4319 5.45377C65.4541 5.41603 65.4732 5.38143 65.4922 5.34369C65.5017 5.32481 65.5112 5.30594 65.5176 5.28707C65.5302 5.25876 65.5398 5.22731 65.5524 5.199C65.562 5.16755 65.5715 5.13924 65.581 5.10779C65.6064 5.00399 65.6222 4.89391 65.6222 4.78382C65.6222 4.09185 65.064 3.52255 64.3599 3.4911C64.3377 3.4911 64.3155 3.4911 64.2933 3.4911C64.2521 3.4911 64.2077 3.4911 64.1665 3.49739C64.1316 3.50053 64.0935 3.50682 64.0586 3.51311C64.0586 3.51311 64.0555 3.51311 64.0523 3.51311C64.0142 3.5194 63.9794 3.52884 63.9445 3.53828C63.9254 3.54457 63.9096 3.54771 63.8906 3.554C63.8715 3.56029 63.8557 3.56658 63.8366 3.57287C63.8176 3.57917 63.7986 3.58546 63.7796 3.59489C63.7637 3.60118 63.7478 3.60747 63.732 3.61691C63.6971 3.63264 63.6654 3.65151 63.6305 3.66723C63.6115 3.67982 63.5893 3.6924 63.5702 3.70498C63.51 3.74587 63.4529 3.78676 63.4021 3.83394C63.3895 3.84652 63.3736 3.8591 63.3609 3.87482L63.3038 3.92829L48.2929 18.5571C47.2907 19.5353 45.6225 18.5037 46.1046 17.2015L47.5825 13.2164L48.5815 10.5272L50.2371 6.06711L50.5542 5.21158C50.8682 4.36864 50.2244 3.47852 49.3047 3.47852C48.7465 3.47852 48.2454 3.82135 48.0551 4.33404L47.4113 6.07025L46.5074 8.50787L45.5083 11.1971L42.1275 20.3059L39.6505 26.9834L39.549 27.2539C39.4951 27.3955 39.4697 27.5433 39.4697 27.6943C39.4697 28.056 39.6188 28.3768 39.8598 28.6127C40.1009 28.8486 40.4307 28.9933 40.7986 28.9933C41.1665 28.9933 41.49 28.858 41.7374 28.6127L41.9467 28.4083L44.005 26.4015L51.6167 18.9818C52.1368 18.4785 52.9773 18.4785 53.4943 18.9818L63.3768 28.6096C63.6241 28.8517 63.9635 28.9901 64.3155 28.9901C65.0482 28.9901 65.6444 28.4114 65.6444 27.6974C65.6444 27.3514 65.5049 27.0243 65.2543 26.7821L65.2575 26.7664Z" fill="#4F473B"/>
<path d="M89.9574 5.79058C89.9574 5.18982 89.9574 4.74948 89.8084 4.52616C89.5959 4.29655 89.1677 4.18018 88.5429 4.18018C87.9181 4.18018 87.4931 4.29655 87.2775 4.52616C87.1284 4.74948 87.1284 5.18982 87.1284 5.79058V19.0166C87.1284 20.8881 87.1284 23.4484 85.4094 25.4834L85.3968 25.4991C83.9727 27.1158 81.8066 27.9367 78.9554 27.9367C76.1042 27.9367 73.8746 27.0938 72.4728 25.4991L72.4601 25.4834C70.7443 23.4484 70.7443 20.8849 70.7443 19.0166V5.79058C70.7443 5.18668 70.7443 4.74948 70.5952 4.52616C70.3827 4.29655 69.9546 4.18018 69.3298 4.18018C68.705 4.18018 68.2356 4.29655 68.0231 4.52616C67.874 4.74948 67.874 5.18982 67.874 5.79058V18.7272C67.874 21.6398 67.874 24.3919 70.1734 26.9113C72.0573 28.9904 74.918 30 78.9141 30C82.9103 30 85.8186 28.9621 87.6485 26.9176C89.9543 24.3919 89.9543 21.2498 89.9543 18.7272V5.79058H89.9574Z" fill="#4F473B"/>
<path d="M26.4886 6.5956C26.403 6.55157 26.3078 6.50439 26.1968 6.45406C25.4008 6.09864 24.221 5.77467 22.7811 5.51676C22.4164 5.45071 22.0358 5.39094 21.6488 5.33433C20.5864 5.18335 19.4414 5.06698 18.2394 4.99464C18.2141 4.99464 17.2182 4.95375 16.4824 4.92544C16.0447 4.90971 15.699 4.89399 15.699 4.89399C15.699 4.89399 15.0616 4.8877 14.7603 4.8877C13.6883 4.8877 12.6322 4.91915 11.6141 4.97576C9.8983 5.07327 8.28716 5.24941 6.89168 5.48845C5.67698 5.69919 4.62403 5.9571 3.80895 6.25591C3.47276 6.37857 3.21904 6.4918 3.02875 6.59245C3.00021 6.60504 2.97483 6.61762 2.94629 6.6302V11.4425C2.94629 11.4991 2.94629 11.5558 2.94946 11.6124C2.94946 11.6124 2.94946 11.6124 2.94629 11.6124V16.4247C2.94629 16.5537 2.94629 16.6795 2.95263 16.8084C2.98752 17.6985 3.1461 18.5604 3.40933 19.3813C3.67574 20.2022 4.04681 20.9823 4.51303 21.7057C4.97607 22.426 5.53109 23.0959 6.16223 23.6967C7.02488 24.5176 8.03026 25.2127 9.14347 25.7537C10.2503 26.2915 11.465 26.6753 12.7495 26.8734C13.4028 26.9741 14.072 27.0244 14.7539 27.0244C15.4358 27.0244 16.0606 26.9772 16.6886 26.8829C17.9921 26.691 19.2226 26.3073 20.3453 25.7631C21.4681 25.219 22.4798 24.5207 23.3488 23.6967C23.9831 23.0959 24.5381 22.426 25.0012 21.7025C25.4674 20.976 25.8384 20.1959 26.1048 19.3719C26.3713 18.5509 26.5267 17.686 26.5615 16.7958C26.5679 16.6732 26.5679 16.5474 26.5679 16.4247V11.6124C26.5679 11.6124 26.5679 11.6124 26.5647 11.6124C26.5647 11.5558 26.5679 11.4991 26.5679 11.4425V6.6302C26.5203 6.60818 26.5235 6.61133 26.4854 6.59245L26.4886 6.5956Z" fill="#FBB03B"/>
<path d="M21.9088 19.0667C22.3485 19.0667 22.7049 18.7133 22.7049 18.2773C22.7049 17.8413 22.3485 17.4878 21.9088 17.4878C21.4692 17.4878 21.1128 17.8413 21.1128 18.2773C21.1128 18.7133 21.4692 19.0667 21.9088 19.0667Z" fill="white"/>
<path d="M20.025 23.3539C20.8833 23.3539 21.5791 22.6639 21.5791 21.8127C21.5791 20.9615 20.8833 20.2715 20.025 20.2715C19.1667 20.2715 18.4709 20.9615 18.4709 21.8127C18.4709 22.6639 19.1667 23.3539 20.025 23.3539Z" fill="white"/>
<path d="M27.2245 16.7393C27.1959 19.6582 25.9019 22.4041 23.5804 24.4737C21.2239 26.5716 18.0936 27.7259 14.7603 27.7259C7.88444 27.7259 2.29302 22.7563 2.29302 16.645V0C1.02758 0 0 1.01908 0 2.27406V16.645C0 24.0082 6.62217 30 14.7603 30C18.6581 30 22.3371 28.6381 25.1122 26.1658C27.0215 24.4674 28.3567 22.3789 29.0227 20.0985C34.1765 19.8218 38.2773 15.9216 38.2773 11.1721C38.2773 6.42273 34.4365 2.77416 29.5175 2.2835V2.27721C29.5175 1.02223 28.4931 0.00629062 27.2276 0.00629062V2.27406V16.7393H27.2245ZM29.5746 17.7616V4.57328C33.1996 5.06395 35.9811 7.83497 35.9811 11.1659C35.9811 14.4967 33.1965 17.2709 29.5746 17.7584V17.7616Z" fill="#4F473B"/>
<path d="M11.2779 23.8794C14.3975 23.8794 16.9264 21.3714 16.9264 18.2776C16.9264 15.1838 14.3975 12.6758 11.2779 12.6758C8.15832 12.6758 5.62939 15.1838 5.62939 18.2776C5.62939 21.3714 8.15832 23.8794 11.2779 23.8794Z" fill="#FFED2E"/>
<path d="M11.2779 22.8382C13.8177 22.8382 15.8767 20.7963 15.8767 18.2775C15.8767 15.7587 13.8177 13.7168 11.2779 13.7168C8.73812 13.7168 6.6792 15.7587 6.6792 18.2775C6.6792 20.7963 8.73812 22.8382 11.2779 22.8382Z" fill="white"/>
<path d="M14.1768 15.5884L11.4651 18.2587L14.1768 20.9291C15.6008 19.4288 15.6008 17.0887 14.1768 15.5915V15.5884Z" fill="#4F473B"/>
<path d="M8.59473 21.0645L11.2652 22.1623L13.9388 21.0645L11.2652 18.4351L8.59473 21.0645Z" fill="#4F473B"/>
<path d="M11.1668 18.1582L13.9387 15.4312L11.3856 14.3901L8.85156 20.4543L11.1668 18.1582Z" fill="#4F473B"/>
<path d="M7.3103 18.2587C7.3103 19.2527 7.69089 20.2057 8.37911 20.9291L11.0305 14.5913L7.3103 18.2619V18.2587Z" fill="#4F473B"/>
<path d="M14.7601 8.28787C20.4441 8.28787 25.0518 7.76401 25.0518 7.11781C25.0518 6.47161 20.4441 5.94775 14.7601 5.94775C9.07623 5.94775 4.46851 6.47161 4.46851 7.11781C4.46851 7.76401 9.07623 8.28787 14.7601 8.28787Z" fill="#4F473B"/>
</svg>
